<svg id="card-icon-artista" width="100" height="100" viewBox="0 0 100 100" fill="#4E6282" display="none" xmlns="http://www.w3.org/2000/svg">
   <g clip-path="url(#clip0_49_78)">
   <path d="M50 0C22.3889 0 0 22.3889 0 50C0 77.6111 22.3889 100 50 100C54.6111 100 58.3333 96.2778 58.3333 91.6667C58.3333 89.5 57.5278 87.5556 56.1667 86.0833C54.8611 84.6111 54.0833 82.6944 54.0833 80.5555C54.0833 75.9444 57.8056 72.2222 62.4167 72.2222H72.2222C87.5555 72.2222 100 59.7778 100 44.4444C100 19.8889 77.6111 0 50 0ZM19.4444 50C14.8333 50 11.1111 46.2778 11.1111 41.6667C11.1111 37.0556 14.8333 33.3333 19.4444 33.3333C24.0556 33.3333 27.7778 37.0556 27.7778 41.6667C27.7778 46.2778 24.0556 50 19.4444 50ZM36.1111 27.7778C31.5 27.7778 27.7778 24.0556 27.7778 19.4444C27.7778 14.8333 31.5 11.1111 36.1111 11.1111C40.7222 11.1111 44.4444 14.8333 44.4444 19.4444C44.4444 24.0556 40.7222 27.7778 36.1111 27.7778ZM63.8889 27.7778C59.2778 27.7778 55.5556 24.0556 55.5556 19.4444C55.5556 14.8333 59.2778 11.1111 63.8889 11.1111C68.5 11.1111 72.2222 14.8333 72.2222 19.4444C72.2222 24.0556 68.5 27.7778 63.8889 27.7778ZM80.5555 50C75.9444 50 72.2222 46.2778 72.2222 41.6667C72.2222 37.0556 75.9444 33.3333 80.5555 33.3333C85.1667 33.3333 88.8889 37.0556 88.8889 41.6667C88.8889 46.2778 85.1667 50 80.5555 50Z"/>
   </g>
   <defs>
   <clipPath id="clip0_49_78">
   <rect width="100" height="100"/>
   </clipPath>
   </defs>
</svg>
