<svg width="100" height="100" viewBox="0 0 100 100" xmlns="http://www.w3.org/2000/svg">
<path d="M90.3576 52.2847C95.683 52.2847 100 47.9677 100 42.6424C100 37.317 95.683 33 90.3576 33C85.0323 33 80.7153 37.317 80.7153 42.6424C80.7153 47.9677 85.0323 52.2847 90.3576 52.2847Z"/>
<path d="M70.3497 44.0887C53.114 39.2675 37.0836 46.9814 29.0081 51.0794C25.3922 52.8873 22.8611 56.5032 22.8611 60.8423V81.0912L2.73266 90.6131C0.322073 91.6978 -0.642164 94.5905 0.442602 97.0011C1.28631 98.6885 2.97372 99.7733 4.78167 99.7733C5.50484 99.7733 6.22802 99.6528 6.83067 99.2912L29.7313 88.4435C31.4187 87.5998 32.5035 85.9124 32.5035 84.1045V66.5072L45.5207 75.9085L36.722 92.6621C35.5167 95.0727 36.3604 97.9654 38.771 99.1707C39.4942 99.5322 40.2174 99.7733 41.0611 99.7733C42.7485 99.7733 44.4359 98.8091 45.2796 97.2422L56.1273 76.7522C57.212 74.5826 56.6094 71.931 54.6809 70.6052L45.0385 63.735H68.7829V95.0727C68.7829 97.7243 70.9524 99.8938 73.604 99.8938C76.2557 99.8938 78.4252 97.7243 78.4252 95.0727V53.49C78.3047 48.7893 74.8093 44.8118 70.3497 44.0887Z"/>
</svg>
