<svg id="card-icon-detalhista" width="100" height="100" viewBox="0 0 100 100" fill="#4E6282" display="none" xmlns="http://www.w3.org/2000/svg">
   <g clip-path="url(#clip0_49_95)">
   <path d="M2.45927 85.788L28.3925 59.8487C23.2238 51.7753 21.2192 42.0765 22.7639 32.615C24.3086 23.1535 29.2936 14.5963 36.7614 8.5869C44.2293 2.57751 53.6536 -0.460396 63.2242 0.0566215C72.7949 0.573639 81.8372 4.60912 88.6146 11.3881C95.3919 18.167 99.4265 27.2114 99.9434 36.7843C100.46 46.3572 97.4231 55.7836 91.4151 63.2532C85.4071 70.7229 76.8519 75.709 67.3926 77.254C57.9332 78.799 48.2367 76.7941 40.1652 71.6241L14.2319 97.5634C12.6701 99.1236 10.553 100 8.34562 100C6.13823 100 4.0211 99.1236 2.45927 97.5634C1.68022 96.7936 1.06168 95.8768 0.639526 94.8661C0.217377 93.8554 0 92.771 0 91.6757C0 90.5803 0.217377 89.4959 0.639526 88.4852C1.06168 87.4745 1.68022 86.5577 2.45927 85.788ZM88.8664 38.9084C88.8664 33.4156 87.2379 28.0461 84.187 23.479C81.136 18.9119 76.7996 15.3523 71.7261 13.2503C66.6525 11.1482 61.0698 10.5983 55.6838 11.6699C50.2977 12.7415 45.3503 15.3865 41.4672 19.2705C37.5841 23.1545 34.9397 28.1031 33.8683 33.4904C32.797 38.8776 33.3468 44.4617 35.4483 49.5364C37.5499 54.6111 41.1087 58.9486 45.6747 62.0002C50.2408 65.0519 55.609 66.6807 61.1006 66.6807C68.4645 66.6807 75.5269 63.7547 80.734 58.5464C85.941 53.3381 88.8664 46.2741 88.8664 38.9084Z"/>
   </g>
   <defs>
   <clipPath id="clip0_49_95">
   <rect width="100" height="100" transform="matrix(-1 0 0 1 100 0)"/>
   </clipPath>
   </defs>
</svg>
