<svg width="100" height="100" viewBox="0 0 100 100" xmlns="http://www.w3.org/2000/svg">
<path d="M97.7159 78.1869H97.3464C95.0357 78.1869 94.8416 80.3786 94.8322 80.95V84.8373C94.8322 86.0271 93.7097 84.9484 93.6158 84.8545L84.9818 76.3161L51.5984 42.762C49.9045 41.0618 48.2513 42.7338 48.2263 42.7604L13.1364 77.6718L13.1348 77.6749L12.7121 78.0961C12.6135 78.2072 12.5023 78.3528 12.3912 78.5031L6.45626 84.3754C5.18505 85.631 5.16783 84.3723 5.16783 84.3723V80.6119C5.16783 78.4014 3.57255 78.1994 3.07158 78.19H2.50798C2.50798 78.19 0 78.1415 0 80.6855V85.1582V90.7612V96.7948C0 96.7948 0 99.9008 2.32325 99.9008H2.84614C3.33302 99.8867 5.16939 99.6456 5.16939 96.7619V94.1068C5.16939 91.6379 6.33571 90.5233 6.33571 90.5233L10.5407 86.3652C10.7396 86.1789 11.444 85.5699 11.444 86.4153V97.1486C11.455 97.8265 11.7024 99.9008 14.2949 99.9008H31.8836H32.8245C35.9055 99.9008 36.7071 97.6198 36.7415 97.5134L49.1358 62.0728C49.1358 62.0728 49.9092 60.3648 50.5229 62.0728C50.5229 62.0775 50.5229 62.0775 50.5245 62.0791L63.0957 97.1846C63.0957 97.1846 63.9442 99.9008 67.4745 99.9008H67.7469H85.0648C87.9063 99.9008 88.1834 97.8061 88.199 97.1032V87.6912C88.199 87.6912 88.3477 85.6795 90.3798 87.6881L93.7332 91.007C93.7332 91.007 94.8306 92.1154 94.8306 93.8485V97.4836C94.84 98.0441 95.0247 99.8993 97.1241 99.8993H97.2713C100 100.051 100 96.466 100 96.466V94.8301V91.1777V81.3853C100 78.4749 98.2732 78.201 97.7159 78.1869Z"/>
</svg>
