<svg width="100" height="100" viewBox="0 0 100 100" xmlns="http://www.w3.org/2000/svg">
   <g clip-path="url(#clip0_51_4)">
      <path d="M98.5701 42.3007C97.6014 41.6549 96.3098 41.6549 95.3411 42.3007L80.4874 49.7275C79.8416 45.2069 75.9667 41.9778 71.1231 41.9778H25.9162C20.4268 41.9778 16.2291 46.1756 16.2291 51.665V71.0394C16.2291 76.5288 20.4268 80.7265 25.9162 80.7265H42.3845L32.6973 94.9344C31.7286 96.5489 32.0515 98.4864 33.666 99.4551C35.2805 100.424 37.218 100.101 38.1867 98.4864L48.5197 82.9869L58.8527 98.4864C59.4985 99.4551 60.4672 99.778 61.4359 99.778C62.0817 99.778 62.7275 99.4551 63.3734 99.1322C64.9879 98.1635 65.3108 96.226 64.3421 94.6115L54.6549 80.4036H71.1231C75.9667 80.4036 79.8416 77.1746 80.4874 72.6539L95.3411 80.0807C95.9869 80.7265 96.3098 80.7265 96.9556 80.7265C97.6014 80.7265 98.2472 80.4036 98.5701 80.4036C99.5389 79.7578 100.185 78.7891 100.185 77.4975V45.2069C100.185 44.2381 99.5389 42.9465 98.5701 42.3007Z"/>
      <path d="M64.665 0C57.884 0 52.0716 3.55197 48.5197 8.71847C44.9677 3.55197 39.1554 0 32.3744 0C21.7185 0 13 8.71847 13 19.3744C13 30.0303 21.7185 38.7487 32.3744 38.7487C39.1554 38.7487 44.9677 35.1968 48.5197 30.0303C52.0716 35.1968 57.884 38.7487 64.665 38.7487C75.3209 38.7487 84.0394 30.0303 84.0394 19.3744C84.0394 8.71847 75.3209 0 64.665 0ZM32.3744 25.8325C28.8224 25.8325 25.9162 22.9263 25.9162 19.3744C25.9162 15.8224 28.8224 12.9162 32.3744 12.9162C35.9263 12.9162 38.8325 15.8224 38.8325 19.3744C38.8325 22.9263 35.9263 25.8325 32.3744 25.8325ZM64.665 25.8325C61.113 25.8325 58.2069 22.9263 58.2069 19.3744C58.2069 15.8224 61.113 12.9162 64.665 12.9162C68.217 12.9162 71.1231 15.8224 71.1231 19.3744C71.1231 22.9263 68.217 25.8325 64.665 25.8325Z"/>
   </g>
   <defs>
      <clipPath id="clip0_51_4">
         <rect width="100" height="100"/>
      </clipPath>
   </defs>
</svg>
