<svg width="100" height="100" viewBox="0 0 100 100" xmlns="http://www.w3.org/2000/svg">
<path d="M0 74.8661C0 89.4196 11.0491 100 24.7098 100H75.2902C88.9509 100 100 89.4196 100 74.8661C100 60.3125 88.9509 50 75.2902 50H24.7098C11.0491 50 0 60.3348 0 74.8661ZM83.2143 69.933C85.6027 69.933 87.5446 71.8304 87.5446 74.1741C87.5446 76.5179 85.6027 78.4152 83.2143 78.4152C80.8259 78.4152 78.8839 76.5179 78.8839 74.1741C78.8839 71.8304 80.8259 69.933 83.2143 69.933ZM73.7277 60.6696C76.1384 60.6696 78.0804 62.567 78.0804 64.9107C78.0804 67.2545 76.1384 69.1518 73.7277 69.1518C71.3393 69.1518 69.3973 67.2545 69.3973 64.9107C69.3973 62.567 71.3393 60.6696 73.7277 60.6696ZM73.7277 79.2187C76.1384 79.2187 78.0804 81.0937 78.0804 83.4598C78.0804 85.8036 76.1384 87.6786 73.7277 87.6786C71.3393 87.6786 69.3973 85.7812 69.3973 83.4598C69.4196 81.0937 71.3393 79.2187 73.7277 79.2187ZM64.2411 69.933C66.6518 69.933 68.5938 71.8304 68.5938 74.1741C68.5938 76.5179 66.6518 78.4152 64.2411 78.4152C61.8527 78.4152 59.9107 76.5179 59.9107 74.1741C59.9107 71.8304 61.8527 69.933 64.2411 69.933ZM12.5 72.6116C12.5 72.0089 12.9018 71.4286 13.4598 71.4286H13.7054H21.4286V62.9018V62.7679C21.4286 62.1429 21.8973 61.6071 22.5 61.6071H27.3884C27.9911 61.6071 28.5938 62.1429 28.5938 62.7679V62.8795V71.4286H36.8973H37.0312C37.6339 71.4286 38.192 71.9866 38.192 72.6116V77.4554C38.192 78.1027 37.6339 78.5714 37.0312 78.5714H36.9196H28.5714V87.1875V87.2991C28.5714 87.9241 27.9688 88.3929 27.3661 88.3929H22.4777C21.8973 88.3929 21.4062 87.9688 21.4062 87.3884V87.1429V78.5714H13.6384H13.5268C12.9241 78.5714 12.5 78.1027 12.5 77.4554V72.6116Z"/>
</svg>
