<svg width="194" height="60" viewBox="0 0 194 60" fill="none" xmlns="http://www.w3.org/2000/svg">
<path fill-rule="evenodd" clip-rule="evenodd" d="M5 0C2.23858 0 0 2.23858 0 5V55C0 57.7614 2.23858 60 5 60H55C57.7614 60 60 57.7614 60 55V5C60 2.23858 57.7614 0 55 0H5ZM27.99 30V8.94H22.86V30H27.99ZM45.4177 10.26C43.7577 9.38 41.8177 8.94 39.5977 8.94H31.7077V30H39.5977C41.7977 30 43.7277 29.56 45.3877 28.68C47.0677 27.8 48.3577 26.56 49.2577 24.96C50.1777 23.36 50.6377 21.53 50.6377 19.47C50.6377 17.39 50.1777 15.56 49.2577 13.98C48.3577 12.38 47.0777 11.14 45.4177 10.26ZM43.7977 23.97C42.7177 25.03 41.2077 25.56 39.2677 25.56H36.8377V13.32H39.2677C41.2077 13.32 42.7177 13.86 43.7977 14.94C44.8777 16.02 45.4177 17.53 45.4177 19.47C45.4177 21.41 44.8777 22.91 43.7977 23.97Z" fill="#2E3A4E"/>
<path d="M101.68 22.2C100.92 20.8 99.82 19.74 98.38 19.02C96.98 18.26 95.32 17.88 93.4 17.88C90.08 17.88 87.42 18.98 85.42 21.18C83.42 23.34 82.42 26.24 82.42 29.88C82.42 33.76 83.46 36.8 85.54 39C87.66 41.16 90.56 42.24 94.24 42.24C96.76 42.24 98.88 41.6 100.6 40.32C102.36 39.04 103.64 37.2 104.44 34.8H91.42V27.24H113.74V36.78C112.98 39.34 111.68 41.72 109.84 43.92C108.04 46.12 105.74 47.9 102.94 49.26C100.14 50.62 96.98 51.3 93.46 51.3C89.3 51.3 85.58 50.4 82.3 48.6C79.06 46.76 76.52 44.22 74.68 40.98C72.88 37.74 71.98 34.04 71.98 29.88C71.98 25.72 72.88 22.02 74.68 18.78C76.52 15.5 79.06 12.96 82.3 11.16C85.54 9.32 89.24 8.4 93.4 8.4C98.44 8.4 102.68 9.62 106.12 12.06C109.6 14.5 111.9 17.88 113.02 22.2H101.68ZM150.983 33.72C150.983 34.68 150.923 35.68 150.803 36.72H127.583C127.743 38.8 128.403 40.4 129.563 41.52C130.763 42.6 132.223 43.14 133.943 43.14C136.503 43.14 138.283 42.06 139.283 39.9H150.203C149.643 42.1 148.623 44.08 147.143 45.84C145.703 47.6 143.883 48.98 141.683 49.98C139.483 50.98 137.023 51.48 134.303 51.48C131.023 51.48 128.103 50.78 125.543 49.38C122.983 47.98 120.983 45.98 119.543 43.38C118.103 40.78 117.383 37.74 117.383 34.26C117.383 30.78 118.083 27.74 119.483 25.14C120.923 22.54 122.923 20.54 125.483 19.14C128.043 17.74 130.983 17.04 134.303 17.04C137.543 17.04 140.423 17.72 142.943 19.08C145.463 20.44 147.423 22.38 148.823 24.9C150.263 27.42 150.983 30.36 150.983 33.72ZM140.483 31.02C140.483 29.26 139.883 27.86 138.683 26.82C137.483 25.78 135.983 25.26 134.183 25.26C132.463 25.26 131.003 25.76 129.803 26.76C128.643 27.76 127.923 29.18 127.643 31.02H140.483ZM176.796 17.16C180.716 17.16 183.836 18.44 186.156 21C188.516 23.52 189.696 27 189.696 31.44V51H179.496V32.82C179.496 30.58 178.916 28.84 177.756 27.6C176.596 26.36 175.036 25.74 173.076 25.74C171.116 25.74 169.556 26.36 168.396 27.6C167.236 28.84 166.656 30.58 166.656 32.82V51H156.396V17.52H166.656V21.96C167.696 20.48 169.096 19.32 170.856 18.48C172.616 17.6 174.596 17.16 176.796 17.16Z" fill="#2E3A4E"/>
</svg>
