<svg width="100" height="100" viewBox="0 0 100 100"xmlns="http://www.w3.org/2000/svg">
<g clip-path="url(#clip0_49_134)">
<path fill-rule="evenodd" clip-rule="evenodd" d="M93.0625 44.6875C92.75 44.0625 91.8125 43.75 90.875 43.75H28.375C27.4375 43.75 26.5 44.0625 26.1875 44.6875C25.5625 45.625 25.25 46.25 25.25 47.1875L31.5 97.1875C31.8125 98.75 33.0625 100 34.625 100H84.625C86.1875 100 87.4375 98.75 87.75 97.1875L94 47.1875C94 46.25 93.6875 45.625 93.0625 44.6875ZM49.8349 52.9926C49.719 51.3398 48.2852 50.0939 46.6324 50.2099C44.9796 50.3258 43.7337 51.7596 43.8496 53.4124L46.446 90.426C46.562 92.0788 47.9958 93.3247 49.6486 93.2087C51.3014 93.0928 52.5472 91.659 52.4313 90.0062L49.8349 52.9926ZM75.4166 53.4124C75.5325 51.7596 74.2867 50.3258 72.6339 50.2099C70.9811 50.0939 69.5472 51.3398 69.4313 52.9926L66.8349 90.0062C66.719 91.659 67.9649 93.0928 69.6176 93.2087C71.2704 93.3247 72.7043 92.0788 72.8202 90.426L75.4166 53.4124Z"/>
<path d="M90.875 50H28.375C23.0625 50 19 45.9375 19 40.625C19 35.3125 23.0625 31.25 28.375 31.25H90.875C96.1875 31.25 100.25 35.3125 100.25 40.625C100.25 45.9375 96.1875 50 90.875 50Z"/>
<path d="M90.25 37.5H29C27.75 37.5 26.5 36.5625 26.1875 35.3125C25.5625 34.0625 25.25 32.8125 25.25 31.25C25.25 26.5625 27.75 22.5 31.5 20.3125C31.5 20 31.5 19.375 31.5 18.75C31.5 11.875 37.125 6.25 44 6.25C45.5625 6.25 47.125 6.5625 48.375 7.1875C50.5625 2.8125 54.625 0 59.625 0C64.625 0 68.6875 2.8125 70.875 7.1875C72.125 6.5625 73.6875 6.25 75.25 6.25C82.125 6.25 87.75 11.875 87.75 18.75C87.75 19.375 87.75 20 87.75 20.3125C91.5 22.5 94 26.5625 94 31.25C94 32.8125 93.6875 34.0625 93.375 35.3125C92.75 36.5625 91.8125 37.5 90.25 37.5ZM31.5 31.25H87.75C87.75 28.4375 85.875 25.9375 83.0625 25.3125C82.125 25 81.5 24.375 81.1875 23.75C80.875 22.8125 80.875 21.875 81.1875 21.25C81.5 20.3125 81.5 19.375 81.5 18.75C81.5 15.3125 78.6875 12.5 75.25 12.5C73.6875 12.5 72.125 13.125 71.1875 14.0625C70.25 15 69 15 68.0625 14.6875C66.8125 14.375 65.875 13.125 65.875 12.1875C65.5625 8.75 62.75 6.25 59.625 6.25C56.5 6.25 53.6875 8.75 53.375 12.1875C53.375 13.4375 52.4375 14.375 51.5 15C50.25 15.3125 49 15.3125 48.375 14.375C47.125 13.125 45.5625 12.5 44 12.5C40.5625 12.5 37.75 15.3125 37.75 18.75C37.75 19.375 37.75 20.3125 38.0625 20.9375C38.375 21.875 38.375 22.8125 38.0625 23.4375C37.75 24.375 37.125 25 36.1875 25.3125C33.375 25.9375 31.5 28.4375 31.5 31.25Z"/>
</g>
<defs>
<clipPath id="clip0_49_134">
<rect width="100" height="100"/>
</clipPath>
</defs>
</svg>
