<svg id="card-icon-buteco" width="100" height="100" viewBox="0 0 100 100" fill="#4E6282" display="none" xmlns="http://www.w3.org/2000/svg">
   <g clip-path="url(#clip0_51_2)">
      <path d="M87.4784 40.7558C85.6896 40.7558 83.9007 41.1215 82.1119 42.2186V40.7558C82.8275 40.0244 83.543 39.6587 84.2585 38.9273C87.8361 35.2702 89.2672 30.5161 89.2672 25.3962C88.9094 19.1792 85.3318 13.6936 79.6076 10.4023C75.6722 7.84235 72.0946 7.47664 67.8015 8.20805C67.086 7.47664 66.3704 6.74523 65.2972 6.01382C64.5816 5.64812 64.2239 4.91671 63.5084 4.551L62.7928 4.1853C62.0773 3.81959 61.7195 3.45389 61.004 3.08818C60.6463 3.08818 60.2885 2.72248 60.2885 2.72248C59.573 2.35677 59.2152 2.35677 58.4997 1.99107L57.7842 1.62536C57.0687 1.25966 56.7109 1.25966 55.9954 0.893953C55.6376 0.893953 55.6376 0.893954 55.2798 0.528249C54.5643 0.528249 54.2066 0.162544 53.1333 0.162544H52.4178C50.6289 -0.203161 48.7888 0 47 0C46.2845 0 43.3687 0.162544 40 2C34.5 5 32.7409 7.84235 30.9521 9.67087C27.3745 8.20805 23.7968 7.47664 19.8615 8.20805C11.633 9.30517 4.8355 16.2536 3.76222 25.0305C2.68893 32.3446 5.19326 39.293 10.5597 43.6814V58.3096C10.5597 64.5266 8.41311 70.3779 4.47774 74.4007C0.542367 78.4234 -0.888678 83.909 0.542367 89.7603C2.33117 95.6115 8.05535 100 14.8528 100C18.7882 100 22.008 98.5372 24.5124 95.9772C27.7322 98.5372 31.6676 100 35.603 100H64.2239C73.1679 100 80.6809 93.0516 81.7542 83.909C83.543 84.6404 85.3318 85.3718 87.4784 85.3718C94.2758 85.3718 100 79.5205 100 72.5721V54.2869C100 46.6071 94.2758 40.7558 87.4784 40.7558ZM42.7582 80.9833C42.7582 83.1776 41.3272 84.6404 39.1806 84.6404C37.034 84.6404 35.603 83.1776 35.603 80.9833V59.041C35.603 56.8468 37.034 55.384 39.1806 55.384C41.3272 55.384 42.7582 56.8468 42.7582 59.041V80.9833ZM64.2239 80.9833C64.2239 83.1776 62.7928 84.6404 60.6463 84.6404C58.4997 84.6404 57.0686 83.1776 57.0686 80.9833V59.041C57.0686 56.8468 58.4997 55.384 60.6463 55.384C62.7928 55.384 64.2239 56.8468 64.2239 59.041V80.9833ZM79.2498 33.8074C77.1033 36.0016 74.2412 37.0987 71.3791 37.0987C70.3058 37.0987 69.2325 36.733 67.8015 36.3673C66.3704 36.0016 64.9394 36.3673 63.8661 37.4645C63.1506 38.5616 62.0773 39.293 61.004 40.3901C60.6463 40.7558 60.2885 41.1215 59.573 41.4872L59.2152 41.8529C58.8575 42.2186 58.4997 42.2186 58.1419 42.5843L57.4264 42.95C57.0686 42.95 56.7109 43.3157 56.3531 43.3157L55.6376 43.6814C55.2798 43.6814 54.9221 44.0471 54.2066 44.0471H53.8488C53.491 44.0471 53.1333 44.0471 52.4178 44.4128H51.7022C50.2712 44.4128 48.8401 44.4128 47.4091 44.4128H46.6936C45.2625 44.0471 43.4737 43.6814 42.0427 42.95L41.6849 42.5843C40.9694 42.2186 40.2539 41.8529 39.5383 41.4872C35.9607 38.9273 31.3098 38.5616 27.0167 40.0244C23.4391 41.4872 20.9348 44.7786 20.9348 48.4356V85.3718C20.9348 89.0289 18.0727 91.9545 14.1373 91.9545C10.9174 91.9545 7.69759 89.7603 6.98207 87.2003C6.26655 84.2747 6.98207 81.349 8.77088 79.5205C14.4951 74.035 17.7149 66.3551 17.7149 57.9439V41.4872C17.7149 40.3901 16.9994 39.293 16.2839 38.5616C11.9907 35.6359 9.84416 30.8818 10.5597 26.1276C11.633 20.642 15.9261 16.2536 20.9348 15.1564C21.6503 15.1564 22.3658 15.1564 23.0813 15.1564C25.9434 15.1564 28.4477 16.2536 29.8788 17.3507C30.5943 17.7164 31.6676 18.0821 32.7409 17.7164C33.8142 17.3507 34.5297 16.985 34.8874 16.2536C36.3185 14.0593 38.4651 11.8651 40.6116 10.4023C40.6116 10.4023 40.6116 10.4023 40.9694 10.4023C42.4004 9.67087 43.4737 8.93946 44.9048 8.57376C44.9048 8.57376 45.2625 8.57376 45.6203 8.57376C45.978 8.57376 46.6936 8.20805 47.4091 8.20805H47.7669C49.1979 8.20805 50.2712 7.84235 52.06 8.20805H52.4178C52.7755 8.20805 53.1333 8.20805 53.8488 8.57376H54.5643C54.9221 8.57376 55.2798 8.93946 55.6376 8.93946L56.3531 9.30517C56.7109 9.30517 57.0686 9.67087 57.4264 9.67087L57.7842 10.0366C58.1419 10.4023 58.4997 10.4023 58.8575 10.768L59.2152 11.1337C59.9307 11.1337 60.6463 11.4994 61.004 11.8651C62.0773 12.5965 62.7928 13.6936 63.8661 14.7907C64.9394 15.8879 66.3704 16.6193 67.8015 15.8879C70.6636 14.7907 73.5257 15.1564 76.03 16.6193C79.6076 18.4478 81.7542 22.1048 82.1119 25.7619C82.1119 28.6875 81.0387 31.6132 79.2498 33.8074ZM92.8448 71.8407C92.8448 74.7664 90.3404 77.3263 87.4784 77.3263C84.6163 77.3263 82.1119 74.7664 82.1119 71.8407V53.5555C82.1119 50.6298 84.6163 48.0699 87.4784 48.0699C90.3404 48.0699 92.8448 50.6298 92.8448 53.5555V71.8407Z"/>
   </g>
   <defs>
   <clipPath id="clip0_51_2">
      <rect width="100" height="100"/>
   </clipPath>
   </defs>
</svg>
