<svg id="card-icon-cafe" width="100" height="100" viewBox="0 0 100 100" fill="#4E6282" display="none" xmlns="http://www.w3.org/2000/svg">
   <g clip-path="url(#clip0_49_87)">
   <path d="M82.8159 48.3773H81.2537V45.1521C81.2537 43.4414 80.5953 41.8007 79.4235 40.5911C78.2516 39.3814 76.6622 38.7018 75.0049 38.7018H6.26848C4.6112 38.7018 3.0218 39.3814 1.84993 40.5911C0.678058 41.8007 0.0197079 43.4414 0.0197079 45.1521V64.503C-0.137223 69.2055 0.644412 73.8911 2.31604 78.2686C3.98767 82.6461 6.51357 86.622 9.73678 89.9492C12.96 93.2763 16.8116 95.8837 21.0524 97.6093C25.2931 99.3348 29.8323 100.142 34.3879 99.9797H46.8855C52.6667 100.092 58.3788 98.6683 63.4729 95.8443C68.5669 93.0202 72.8717 88.8912 75.9735 83.8539H82.8159C87.3734 83.8539 91.7442 81.985 94.9669 78.6585C98.1895 75.3319 100 70.8201 100 66.1156C100 61.4111 98.1895 56.8993 94.9669 53.5727C91.7442 50.2461 87.3734 48.3773 82.8159 48.3773ZM46.8855 87.079H34.3879C31.4804 87.2167 28.577 86.727 25.8631 85.6412C23.1493 84.5553 20.6846 82.8972 18.6265 80.7728C16.5684 78.6483 14.9621 76.1041 13.9102 73.3027C12.8583 70.5014 12.3839 67.5043 12.5172 64.503V51.6024H68.7562V64.503C68.8564 67.4956 68.3593 70.4776 67.2957 73.2635C66.2321 76.0493 64.6247 78.5796 62.5735 80.697C60.5223 82.8144 58.0711 84.4736 55.3722 85.5715C52.6734 86.6694 49.7846 87.1826 46.8855 87.079ZM82.6284 71.6951H80.1914C80.6025 69.2343 80.8116 66.7421 80.8163 64.245V60.5361H82.6284C84.062 60.5361 85.4368 61.1239 86.4505 62.1703C87.4641 63.2166 88.0336 64.6358 88.0336 66.1156C88.0336 67.5954 87.4641 69.0145 86.4505 70.0609C85.4368 71.1072 84.062 71.6951 82.6284 71.6951Z"/>
   <path d="M40.6367 32.2515C42.294 32.2515 43.8834 31.5719 45.0552 30.3622C46.2271 29.1526 46.8855 27.5119 46.8855 25.8012V6.4503C46.8855 4.73957 46.2271 3.09892 45.0552 1.88925C43.8834 0.679583 42.294 0 40.6367 0C38.9794 0 37.39 0.679583 36.2182 1.88925C35.0463 3.09892 34.3879 4.73957 34.3879 6.4503V25.8012C34.3879 27.5119 35.0463 29.1526 36.2182 30.3622C37.39 31.5719 38.9794 32.2515 40.6367 32.2515Z"/>
   <path d="M62.5074 32.2515C64.1647 32.2515 65.7541 31.5719 66.9259 30.3622C68.0978 29.1526 68.7562 27.5119 68.7562 25.8012V22.576C68.7562 20.8653 68.0978 19.2247 66.9259 18.015C65.7541 16.8053 64.1647 16.1257 62.5074 16.1257C60.8501 16.1257 59.2607 16.8053 58.0888 18.015C56.917 19.2247 56.2586 20.8653 56.2586 22.576V25.8012C56.2586 27.5119 56.917 29.1526 58.0888 30.3622C59.2607 31.5719 60.8501 32.2515 62.5074 32.2515Z"/>
   <path d="M18.766 32.2515C20.4233 32.2515 22.0127 31.5719 23.1846 30.3622C24.3564 29.1526 25.0148 27.5119 25.0148 25.8012V19.3509C25.0148 17.6402 24.3564 15.9995 23.1846 14.7898C22.0127 13.5802 20.4233 12.9006 18.766 12.9006C17.1087 12.9006 15.5193 13.5802 14.3475 14.7898C13.1756 15.9995 12.5172 17.6402 12.5172 19.3509V25.8012C12.5172 27.5119 13.1756 29.1526 14.3475 30.3622C15.5193 31.5719 17.1087 32.2515 18.766 32.2515Z"/>
   </g>
   <defs>
   <clipPath id="clip0_49_87">
   <rect width="100" height="100"/>
   </clipPath>
   </defs>
</svg>
