<svg id="card-icon-cozinheiro" width="100" height="100" viewBox="0 0 100 100" fill="#4E6282" display="none" xmlns="http://www.w3.org/2000/svg">
   <g clip-path="url(#clip0_49_92)">
   <path d="M99.2104 28.5876L71.4124 0.789657C71.1397 0.516914 70.8116 0.305867 70.4503 0.170772C70.0891 0.0356763 69.703 -0.0203231 69.3182 0.00655306C68.9334 0.0334292 68.5589 0.142555 68.2199 0.326564C67.8809 0.510573 67.5854 0.76518 67.3532 1.07319L48.6287 25.9147C47.1805 27.8515 46.4765 30.2442 46.645 32.6567C46.8135 35.0692 47.8434 37.3408 49.5467 39.0574L53.3382 42.8489L37.5789 58.6079C35.6181 57.3111 33.3569 56.54 31.0122 56.3687C30.6251 56.3391 30.2362 56.3937 29.8721 56.5287C29.508 56.6637 29.1775 56.8758 28.9031 57.1505L2.8882 83.1658C1.03888 85.0152 -3.79519e-05 87.5235 1.03981e-09 90.1389C3.7954e-05 92.7542 1.03903 95.2625 2.88841 97.1118C4.73778 98.9611 7.24606 100 9.86143 100C12.4768 100 14.9851 98.961 16.8344 97.1116L42.8493 71.0966C43.1238 70.822 43.3357 70.4915 43.4706 70.1275C43.6056 69.7635 43.6603 69.3747 43.6311 68.9876C43.4598 66.6429 42.6887 64.3816 41.3918 62.4207L57.1509 46.6617L60.9424 50.4532C62.659 52.1568 64.9306 53.1867 67.3432 53.3553C69.7558 53.5238 72.1486 52.8196 74.0854 51.3712L98.9269 32.6469C99.2349 32.4147 99.4894 32.1191 99.6734 31.7801C99.8574 31.4411 99.9666 31.0666 99.9934 30.6818C100.02 30.2971 99.9643 29.911 99.8293 29.5498C99.6942 29.1885 99.4831 28.8604 99.2104 28.5876ZM61.6648 27.0002C61.2314 27 60.8069 26.8769 60.4407 26.6451C60.0745 26.4134 59.7815 26.0825 59.5957 25.691C59.4099 25.2994 59.339 24.8632 59.3911 24.433C59.4433 24.0027 59.6164 23.5961 59.8903 23.2602L68.3157 12.9286C68.5052 12.6933 68.7393 12.4979 69.0047 12.3534C69.27 12.209 69.5613 12.1185 69.8617 12.0871C70.1622 12.0556 70.4659 12.0839 70.7554 12.1703C71.0449 12.2566 71.3144 12.3994 71.5485 12.5903C71.7826 12.7813 71.9767 13.0166 72.1195 13.2828C72.2623 13.549 72.3511 13.8408 72.3807 14.1415C72.4104 14.4421 72.3802 14.7456 72.2921 15.0346C72.204 15.3235 72.0596 15.5922 71.8673 15.8252L63.4419 26.1567C63.2271 26.4207 62.9561 26.6334 62.6487 26.7793C62.3412 26.9252 62.0051 27.0007 61.6648 27.0002ZM68.4786 33.8129C68.0254 33.8129 67.5824 33.6785 67.2056 33.4267C66.8287 33.1749 66.535 32.8171 66.3616 32.3983C66.1881 31.9796 66.1427 31.5189 66.2311 31.0744C66.3195 30.6299 66.5377 30.2216 66.8582 29.9011L76.2367 20.5224C76.4492 20.3085 76.7019 20.1386 76.9802 20.0224C77.2585 19.9063 77.557 19.8463 77.8586 19.8458C78.1602 19.8453 78.4589 19.9043 78.7376 20.0194C79.0163 20.1346 79.2695 20.3036 79.4828 20.5169C79.696 20.7301 79.8651 20.9833 79.9803 21.262C80.0955 21.5407 80.1545 21.8394 80.1541 22.141C80.1536 22.4425 80.0936 22.7411 79.9775 23.0194C79.8614 23.2977 79.6916 23.5504 79.4776 23.763L70.0992 33.1414C69.8866 33.3545 69.634 33.5236 69.3559 33.6388C69.0778 33.754 68.7797 33.8133 68.4786 33.8129ZM87.0713 31.6846L76.7395 40.1099C76.2685 40.4941 75.6642 40.6753 75.0595 40.6139C74.4548 40.5524 73.8994 40.2533 73.5153 39.7823C73.1311 39.3113 72.9499 38.707 73.0113 38.1023C73.0728 37.4977 73.3719 36.9422 73.8429 36.5581L84.1747 28.1327C84.6457 27.7486 85.25 27.5673 85.8547 27.6288C86.4593 27.6902 87.0148 27.9893 87.3989 28.4603C87.783 28.9314 87.9643 29.5357 87.9028 30.1403C87.8414 30.745 87.5423 31.3005 87.0713 31.6846Z"/>
   </g>
   <defs>
   <clipPath id="clip0_49_92">
   <rect width="100" height="100"/>
   </clipPath>
   </defs>
</svg>
