<svg id="card-icon-cube" width="100" height="100" viewBox="0 0 100 100" fill="#4E6282" display="none" xmlns="http://www.w3.org/2000/svg">
   <g clip-path="url(#clip0_49_7)">
   <path d="M58 93.8549C58 95.9848 59.2565 97.9622 61.3201 99.0825C63.3837 100.202 65.9604 100.304 68.1304 99.351L96.1304 87.0609C98.502 86.0199 100 83.8925 100 81.5648V46.1451C100 44.0153 98.7435 42.0374 96.6799 40.9178C94.6163 39.7981 92.0396 39.6963 89.8696 40.6487L61.8696 52.9386C59.498 53.9796 58 56.1076 58 58.4354V93.8549Z"/>
   <path d="M86.1637 26.5539C88.5149 25.502 90 23.352 90 21C90 18.648 88.5149 16.498 86.1637 15.4462L53.1035 0.655527C51.15 -0.218509 48.8503 -0.218509 46.8966 0.655527L13.8361 15.4462C11.4851 16.498 10 18.648 10 21C10 23.352 11.4851 25.502 13.8361 26.5539L46.8966 41.3445C48.8503 42.2185 51.15 42.2185 53.1035 41.3445L86.1637 26.5539Z"/>
   <path d="M10.6129 40.6487C8.33969 39.6963 5.63999 39.7981 3.47798 40.9178C1.31597 42.0374 0 44.0153 0 46.1451V81.5648C0 83.8925 1.56933 86.0199 4.05379 87.0609L33.3871 99.351C35.6603 100.304 38.36 100.202 40.522 99.0825C42.684 97.9622 44 95.9848 44 93.8549V58.4354C44 56.1076 42.4307 53.9796 39.9462 52.9386L10.6129 40.6487Z"/>
   </g>
   <defs>
   <clipPath id="clip0_49_7">
   <rect width="100" height="100"/>
   </clipPath>
   </defs>
</svg>
