<svg width="100" height="100" viewBox="0 0 100 100" xmlns="http://www.w3.org/2000/svg">
<path d="M72.5 70C65.6078 70 60 64.3922 60 57.5C60 50.6078 65.6078 45 72.5 45C79.3922 45 85 50.6078 85 57.5C85 64.3922 79.3922 70 72.5 70ZM17.5 50H52.5C53.8812 50 55 51.1187 55 52.5V75H90V42.5C90 41.1187 91.1187 40 92.5 40H97.5C98.8813 40 100 41.1187 100 42.5V97.5C100 98.8812 98.8813 100 97.5 100H92.5C91.1187 100 90 98.8812 90 97.5V90H10V97.5C10 98.8812 8.88125 100 7.5 100H2.5C1.11875 100 0 98.8812 0 97.5V67.5C0 57.8344 7.83437 50 17.5 50Z"/>
</svg>
