<svg width="100" height="100" viewBox="0 0 100 100" xmlns="http://www.w3.org/2000/svg">
<path fill-rule="evenodd" clip-rule="evenodd" d="M27.4409 45C22.5595 45 18.6023 48.9144 18.6023 53.7431V54.9783C17.5857 54.575 16.4758 54.3531 15.3135 54.3531H14.4913C9.60982 54.3531 5.65262 58.2675 5.65262 63.0961V66.9593C2.53076 66.9593 0 69.4627 0 72.5508C0 75.6389 2.53076 78.1423 5.65262 78.1423V81.9039C5.65262 86.7325 9.60982 90.6469 14.4913 90.6469H15.3135C16.4758 90.6469 17.5857 90.425 18.6023 90.0217V91.1553C18.6023 95.9839 22.5595 99.8983 27.4409 99.8983H28.2631C33.1446 99.8983 37.1017 95.9839 37.1017 91.1553V78.1423H63.001V91.2569C63.001 96.0856 66.9582 100 71.8397 100H72.6619C77.5433 100 81.5005 96.0856 81.5005 91.2569V89.96C82.489 90.338 83.5633 90.5453 84.6865 90.5453H85.5087C90.3902 90.5453 94.3474 86.6309 94.3474 81.8022V78.1423C97.4692 78.1423 100 75.6389 100 72.5508C100 69.4627 97.4692 66.9593 94.3474 66.9593V62.9945C94.3474 58.1658 90.3902 54.2514 85.5087 54.2514H84.6865C83.5633 54.2514 82.489 54.4587 81.5005 54.8366V53.8447C81.5005 49.0161 77.5433 45.1017 72.6619 45.1017H71.8397C66.9582 45.1017 63.001 49.0161 63.001 53.8447V66.9593H37.1017V53.7431C37.1017 48.9144 33.1446 45 28.2631 45H27.4409ZM27.852 50.1848C29.8954 50.1848 31.5519 51.8234 31.5519 53.8447V91.2569C31.5519 93.2782 29.8954 94.9168 27.852 94.9168C25.8086 94.9168 24.1521 93.2782 24.1521 91.2569V53.8447C24.1521 51.8234 25.8086 50.1848 27.852 50.1848ZM18.705 62.8928C18.705 60.8715 17.0485 59.2329 15.0051 59.2329C12.9617 59.2329 11.3052 60.8715 11.3052 62.8928V82.0055C11.3052 84.0268 12.9617 85.6654 15.0051 85.6654C17.0485 85.6654 18.705 84.0268 18.705 82.0055V62.8928ZM85.2004 59.2329C87.2438 59.2329 88.9003 60.8715 88.9003 62.8928V82.0055C88.9003 84.0268 87.2438 85.6654 85.2004 85.6654C83.157 85.6654 81.5005 84.0268 81.5005 82.0055V62.8928C81.5005 60.8715 83.157 59.2329 85.2004 59.2329ZM75.8479 53.8447C75.8479 51.8234 74.1914 50.1848 72.148 50.1848C70.1046 50.1848 68.4481 51.8234 68.4481 53.8447V91.2569C68.4481 93.2782 70.1046 94.9168 72.148 94.9168C74.1914 94.9168 75.8479 93.2782 75.8479 91.2569V53.8447Z"/>
</svg>
