<svg id="card-icon-goodvibes" width="100" height="100" viewBox="0 0 100 100" fill="#4E6282" display="none" xmlns="http://www.w3.org/2000/svg">
   <g clip-path="url(#clip0_49_116)">
   <path d="M50 0C22.3828 0 0 22.3828 0 50C0 77.6172 22.3828 100 50 100C77.6172 100 100 77.6172 100 50C100 22.3828 77.6172 0 50 0ZM43.75 86.9336C36.6484 85.7342 30.2344 82.543 25.0801 77.9414L43.75 63.0078V86.9336ZM56.25 63.0078L74.9199 77.9434C69.7656 82.5391 63.3594 85.5664 56.25 86.9336V63.0078ZM12.5 50C12.5 31.4551 26.043 16.0547 43.75 13.0664V46.9922L17.2461 68.2031C14.2305 62.8125 12.5 56.6016 12.5 50ZM82.7539 68.2031L56.25 46.9922V13.0645C73.9648 16.0547 87.5 31.4648 87.5 50C87.5 56.6016 85.7617 62.8125 82.7539 68.2031Z"/>
   </g>
   <defs>
   <clipPath id="clip0_49_116">
   <rect width="100" height="100"/>
   </clipPath>
   </defs>
</svg>
