<svg width="100" height="100" viewBox="0 0 100 100" xmlns="http://www.w3.org/2000/svg">
   <g clip-path="url(#clip0_106_2)">
      <path d="M9.76568 81.8239C9.87418 62.9763 9.97998 44.1557 10.0831 25.3623C10.0875 24.7575 10.3016 24.1729 10.689 23.7084C11.0763 23.2439 11.6129 22.9282 12.2071 22.8151C19.043 21.391 29.8178 21.749 37.1338 24.5567C42.286 26.4171 46.8022 29.7054 50.1547 34.0375C53.6145 29.9128 58.1081 26.7814 63.1755 24.9636C70.0847 22.3268 80.5665 21.6921 88.0779 22.8151C88.6979 22.8992 89.267 23.2037 89.6809 23.6729C90.0949 24.1422 90.326 24.7448 90.3321 25.3705V82.0599C90.331 82.4037 90.2621 82.7438 90.1293 83.0609C89.9966 83.3779 89.8025 83.6657 89.5583 83.9076C89.3141 84.1495 89.0246 84.3409 88.7063 84.4707C88.388 84.6005 88.0472 84.6662 87.7035 84.6641C87.5007 84.6612 87.2988 84.6367 87.1013 84.5908C80.6867 83.7586 74.1672 84.3674 68.0176 86.3731C63.4747 88.0664 59.1629 90.3248 55.184 93.0951C60.7791 91.3588 66.6112 90.5076 72.4691 90.5723C79.9862 90.6919 87.467 91.6417 94.7754 93.4043V34.0781H97.3877C98.0806 34.0781 98.745 34.3534 99.2349 34.8433C99.7248 35.3332 100 35.9976 100 36.6904V96.8223C100 97.5151 99.7248 98.1796 99.2349 98.6695C98.745 99.1594 98.0806 99.4346 97.3877 99.4346C97.1108 99.4323 96.8361 99.3856 96.5739 99.2962C88.7013 97.1314 80.5914 95.9479 72.4284 95.7725C65.2147 95.6815 58.0655 97.1413 51.4649 100.053C51.0223 100.335 50.5085 100.484 49.9838 100.484C49.4591 100.484 48.9453 100.335 48.5027 100.053C41.9023 97.1406 34.753 95.6807 27.5391 95.7725C19.3946 95.9579 11.3041 97.1468 3.45057 99.3125C3.18845 99.4019 2.91369 99.4486 2.63677 99.4509C2.29029 99.4541 1.94664 99.3884 1.6258 99.2575C1.30497 99.1267 1.01337 98.9333 0.767984 98.6887C0.522599 98.4441 0.328332 98.1531 0.196493 97.8327C0.0646539 97.5122 -0.00212259 97.1688 5.14255e-05 96.8223V36.6904C5.14255e-05 35.9976 0.275276 35.3332 0.765178 34.8433C1.25508 34.3534 1.91953 34.0781 2.61236 34.0781H5.22466V93.4043C12.5331 91.6417 20.0139 90.6919 27.531 90.5723C33.8108 90.498 40.0583 91.4801 46.0124 93.4776C42.2514 90.4355 37.9653 88.1076 33.3659 86.6091C27.6693 84.7373 18.9779 84.1107 12.6221 84.6559C12.2775 84.6895 11.9297 84.6542 11.5989 84.5521C11.2681 84.45 10.9608 84.2832 10.695 84.0613C10.4292 83.8395 10.2102 83.567 10.0507 83.2597C9.89112 82.9525 9.79425 82.6165 9.76568 82.2715C9.75746 82.1224 9.75746 81.973 9.76568 81.8239ZM59.9284 74.4102C59.7232 74.5631 59.4888 74.6723 59.2397 74.731C58.9905 74.7897 58.732 74.7967 58.4801 74.7516C58.2282 74.7064 57.9882 74.6101 57.775 74.4685C57.5617 74.327 57.3798 74.1432 57.2404 73.9285C57.101 73.7139 57.0071 73.4729 56.9646 73.2205C56.922 72.9682 56.9316 72.7097 56.9929 72.4612C57.0541 72.2127 57.1657 71.9794 57.3207 71.7757C57.4757 71.5721 57.6708 71.4023 57.8939 71.277C60.8966 69.4128 64.1232 67.9363 67.4968 66.8825C70.9199 65.7238 74.4735 64.994 78.0762 64.7097C78.321 64.6963 78.5659 64.7313 78.7971 64.8126C79.0284 64.8939 79.2413 65.02 79.4238 65.1836C79.6063 65.3472 79.7548 65.5451 79.8608 65.7661C79.9668 65.9871 80.0282 66.2268 80.0416 66.4715C80.0549 66.7163 80.0199 66.9612 79.9386 67.1925C79.8573 67.4237 79.7313 67.6366 79.5676 67.8191C79.404 68.0016 79.2061 68.1501 78.9851 68.2561C78.7641 68.3621 78.5244 68.4235 78.2797 68.4369C75.0118 68.7105 71.7896 69.3828 68.685 70.4388C65.6098 71.3868 62.6675 72.7212 59.9284 74.4102ZM60.0912 59.957C59.6736 60.2225 59.1676 60.3112 58.6845 60.2036C58.2015 60.096 57.781 59.801 57.5155 59.3833C57.25 58.9657 57.1613 58.4597 57.2689 57.9767C57.3765 57.4936 57.6716 57.0731 58.0892 56.8076C61.0856 54.9847 64.2943 53.5362 67.6433 52.4945C71.0114 51.367 74.5036 50.6511 78.0437 50.3623C78.5279 50.354 78.9966 50.5338 79.3511 50.8638C79.7056 51.1938 79.9184 51.6484 79.9447 52.132C79.971 52.6156 79.8089 53.0906 79.4923 53.4572C79.1758 53.8237 78.7294 54.0533 78.2471 54.0977C75.0251 54.365 71.8472 55.0208 68.7826 56.0508C65.7369 56.9933 62.8181 58.3052 60.0912 59.957ZM60.14 45.5528C59.9322 45.6842 59.7004 45.7734 59.4581 45.8153C59.2158 45.8572 58.9675 45.851 58.7276 45.7969C58.4877 45.7429 58.2607 45.6422 58.0598 45.5004C57.8588 45.3587 57.6877 45.1787 57.5562 44.9709C57.4248 44.763 57.3355 44.5313 57.2936 44.289C57.2517 44.0466 57.258 43.7984 57.312 43.5585C57.366 43.3185 57.4668 43.0916 57.6085 42.8906C57.7503 42.6896 57.9302 42.5185 58.1381 42.3871C61.1299 40.5726 64.3331 39.1323 67.6758 38.0983C71.0333 36.9758 74.5148 36.2653 78.0437 35.9824C78.2884 35.9691 78.5334 36.0041 78.7646 36.0854C78.9958 36.1667 79.2087 36.2927 79.3912 36.4563C79.5737 36.62 79.7222 36.8179 79.8282 37.0389C79.9342 37.2599 79.9956 37.4996 80.009 37.7443C80.0224 37.9891 79.9874 38.234 79.9061 38.4652C79.8248 38.6964 79.6987 38.9094 79.5351 39.0919C79.3715 39.2744 79.1735 39.4229 78.9526 39.5289C78.7316 39.6349 78.4919 39.6963 78.2471 39.7097C75.0365 39.9773 71.8697 40.6303 68.8152 41.6546C65.7752 42.5951 62.8618 43.9042 60.14 45.5528ZM42.1062 71.277C42.3293 71.4023 42.5245 71.5721 42.6794 71.7757C42.8344 71.9794 42.946 72.2127 43.0072 72.4612C43.0685 72.7097 43.0781 72.9682 43.0355 73.2205C42.993 73.4729 42.8991 73.7139 42.7597 73.9285C42.6203 74.1432 42.4384 74.327 42.2251 74.4685C42.0119 74.6101 41.7719 74.7064 41.52 74.7516C41.2681 74.7967 41.0096 74.7897 40.7605 74.731C40.5113 74.6723 40.2769 74.5631 40.0717 74.4102C37.3428 72.7237 34.4116 71.3894 31.3477 70.4388C28.243 69.3828 25.0209 68.7105 21.753 68.4369C21.5082 68.4224 21.2688 68.36 21.0482 68.253C20.8276 68.146 20.6302 67.9966 20.4674 67.8133C20.3045 67.6301 20.1794 67.4166 20.0991 67.1849C20.0187 66.9533 19.9848 66.7081 19.9992 66.4634C20.0137 66.2187 20.0762 65.9792 20.1831 65.7586C20.2901 65.538 20.4395 65.3407 20.6228 65.1778C20.806 65.015 21.0195 64.8898 21.2512 64.8095C21.4828 64.7291 21.728 64.6952 21.9727 64.7097C25.5754 64.994 29.129 65.7238 32.5521 66.8825C35.9257 67.9363 39.1523 69.4128 42.155 71.277H42.1062ZM41.9109 56.8076C42.3285 57.0774 42.6219 57.5021 42.7264 57.9882C42.8309 58.4742 42.7381 58.982 42.4683 59.3996C42.1985 59.8172 41.7739 60.1106 41.2878 60.2151C40.8017 60.3197 40.294 60.2268 39.8764 59.957C37.1495 58.3052 34.2306 56.9933 31.1849 56.0508C28.1203 55.0208 24.9424 54.365 21.7204 54.0977C21.2251 54.0642 20.7633 53.8354 20.4367 53.4615C20.1101 53.0875 19.9454 52.5992 19.9789 52.1039C20.0123 51.6085 20.2412 51.1468 20.6151 50.8202C20.989 50.4936 21.4774 50.3289 21.9727 50.3623C25.5128 50.6511 29.005 51.367 32.3731 52.4945C35.7221 53.5362 38.9308 54.9847 41.9271 56.8076H41.9109ZM41.862 42.3871C42.0858 42.5096 42.2822 42.6766 42.4391 42.8778C42.596 43.079 42.7101 43.3101 42.7745 43.557C42.8388 43.8039 42.8519 44.0614 42.8131 44.3135C42.7743 44.5657 42.6844 44.8073 42.5488 45.0234C42.4132 45.2396 42.2349 45.4257 42.0247 45.5704C41.8146 45.7151 41.5771 45.8153 41.3268 45.8649C41.0765 45.9145 40.8188 45.9124 40.5693 45.8587C40.3199 45.805 40.0841 45.7009 39.8764 45.5528C37.1546 43.9042 34.2412 42.5951 31.2012 41.6546C28.1466 40.6303 24.9799 39.9773 21.7693 39.7097C21.5245 39.6963 21.2848 39.6349 21.0638 39.5289C20.8428 39.4229 20.6449 39.2744 20.4813 39.0919C20.3177 38.9094 20.1916 38.6964 20.1103 38.4652C20.029 38.234 19.994 37.9891 20.0074 37.7443C20.0207 37.4996 20.0822 37.2599 20.1882 37.0389C20.2942 36.8179 20.4426 36.62 20.6251 36.4563C20.8076 36.2927 21.0206 36.1667 21.2518 36.0854C21.483 36.0041 21.728 35.9691 21.9727 35.9824C25.5016 36.2653 28.983 36.9758 32.3406 38.0983C35.6833 39.1323 38.8865 40.5726 41.8783 42.3871H41.862ZM85.0912 27.6979C79.0528 27.1283 70.3939 27.7956 64.9659 29.8545C59.9199 31.6234 55.5941 34.9999 52.653 39.4655V88.5052C56.8822 85.6065 61.4522 83.2396 66.2598 81.4577C72.3363 79.5114 78.7233 78.7192 85.0912 79.1221V27.6979ZM47.4284 88.0007V39.3923C44.6941 34.5664 40.2751 31.3438 35.2784 29.4313C29.5818 27.2585 20.8334 26.7702 15.2914 27.5596L14.9984 79.2848C21.045 79.0651 29.3946 79.8382 34.9529 81.653C39.4189 83.1008 43.629 85.2429 47.4284 88.0007Z"/>
   </g>
   <defs>
      <clipPath id="clip0_106_2">
         <rect width="100" height="100"/>
      </clipPath>
   </defs>
</svg>
