<svg id="card-icon-minimalista" width="100" height="100" viewBox="0 0 100 100" fill="#4E6282" display="none" xmlns="http://www.w3.org/2000/svg">
   <g clip-path="url(#clip0_49_159)">
   <path d="M21.0526 0C35.2105 0 47.4947 7.585 53.6684 18.705C59.8632 10.415 70.0526 5 81.5789 5H100V17.5C100 35.45 84.6842 50 65.7895 50H57.8947V55H84.2105V90C84.2105 95.525 79.5 100 73.6842 100H31.5789C25.7632 100 21.0526 95.525 21.0526 90V55H47.3684V45H36.8421C16.4947 45 0 29.33 0 10V0H21.0526ZM73.6842 65H31.5789V90H73.6842V65ZM89.4737 15H81.5789C68.5 15 57.8947 25.075 57.8947 37.5V40H65.7895C78.8684 40 89.4737 29.925 89.4737 17.5V15ZM21.0526 10H10.5263C10.5263 23.805 22.3105 35 36.8421 35H47.3684C47.3684 21.195 35.5842 10 21.0526 10Z"/>
   </g>
   <defs>
   <clipPath id="clip0_49_159">
   <rect width="100" height="100"/>
   </clipPath>
   </defs>
</svg>