<svg id="card-icon-musico" width="100" height="100" viewBox="0 0 100 100" fill="#4E6282" display="none" xmlns="http://www.w3.org/2000/svg">
   <g clip-path="url(#clip0_49_148)">
   <path d="M98.1906 7.62158L92.3892 1.83018C89.9475 -0.611383 85.994 -0.609429 83.5523 1.83225L74.5201 10.8895C73.7632 11.6464 73.1825 12.5509 72.8406 13.5772L70.4595 20.7085L55.5689 35.6078C53.2054 33.8889 50.5879 32.5217 47.736 31.8575C41.2119 30.3535 34.6487 31.7013 30.1756 36.1547C28.3785 37.9908 27.0112 40.237 26.2298 42.6981C25.0578 46.3116 21.6981 49.0852 17.9946 49.4173C13.3808 49.8861 9.05807 51.6635 5.7628 54.9841C-3.14831 63.8714 -1.53876 79.888 9.30224 90.7286C20.1178 101.546 36.141 103.134 45.0287 94.2445C48.1736 90.9474 50.1562 86.6561 50.5957 81.9937C50.9375 78.3313 53.6898 74.9307 57.3288 73.7587C59.7705 73.0018 62.0227 71.6355 63.853 69.8034C68.3202 65.3344 69.6641 58.791 67.9745 52.271C67.3153 49.4134 65.945 46.8038 64.2358 44.4365L79.13 29.541L86.2655 27.1639C87.2666 26.8221 88.1981 26.2429 88.9553 25.486L98.0109 16.4444C100.632 14.0087 100.632 10.0631 98.1906 7.62158ZM40.6259 68.7545C35.4496 68.7545 31.2499 64.555 31.2499 59.3789C31.2499 54.2028 35.4496 50.0033 40.6259 50.0033C45.8022 50.0033 49.8261 54.2028 49.8261 59.3789C50.0019 64.555 45.8022 68.7545 40.6259 68.7545Z"/>
   </g>
   <defs>
   <clipPath id="clip0_49_148">
   <rect width="100" height="100"/>
   </clipPath>
   </defs>
</svg>