<svg id="card-icon-musica" width="100" height="100" viewBox="0 0 100 100" fill="#4E6282" display="none" xmlns="http://www.w3.org/2000/svg">
   <g clip-path="url(#clip0_49_158)">
   <path d="M13.3368 77.222C5.99114 77.222 0 82.3359 0 88.611C0 94.8861 5.99114 100 13.3368 100H23.0268C27.0122 100 30.5548 98.4815 33.0034 96.1143C33.0294 96.092 33.0815 96.092 33.1076 96.0697C33.2639 95.9357 33.3681 95.7347 33.4983 95.6007C33.8369 95.2434 34.1495 94.8861 34.41 94.4841C36.8846 91.3131 38.0568 87.1371 38.0568 83.9437C38.0568 80.1921 38.0568 39.8839 38.0568 39.8839C38.0568 39.7499 38.0568 39.6382 38.0568 39.5042C38.0568 39.3926 38.0568 39.2586 38.0568 39.1469C38.2652 35.9759 40.9742 33.4078 44.5949 32.6932C45.0378 32.6038 46.0016 32.4252 46.0016 32.4252L85.0482 26.0831C85.2305 26.0607 85.3868 26.0384 85.5692 26.0161C85.7775 25.9937 85.9599 25.9937 86.1943 25.9937C89.3462 25.9937 91.6906 28.1152 91.6906 30.728C91.6906 30.728 91.6906 54.3546 91.6906 60.0715C91.6906 65.766 92.446 67.1952 81.1409 67.1952H75.9052C68.5335 67.1952 62.5684 72.3091 62.5684 78.5842C62.5684 84.8593 68.5335 89.9732 75.9052 89.9732H85.5952C90.336 89.9732 94.4777 87.8741 96.8481 84.703C96.8481 84.6807 96.8742 84.703 96.9002 84.703C99.2446 81.9786 100 77.8696 100 72.3537C100 66.8155 100 4.73426 100 4.73426C100 2.12148 97.4212 0 94.2693 0C94.087 0 93.9047 0.0223311 93.7484 0.0223311L92.9409 0.133988L36.2855 9.33452C32.6908 10.1608 29.4347 13.1085 29.1743 16.3466C29.1743 16.3689 29.1743 16.3689 29.1743 16.3912C29.1743 16.4136 29.1743 16.4136 29.1743 16.4359C29.1743 16.4359 29.1743 69.1827 29.1743 72.2867C29.1743 75.3908 29.6952 77.2443 16.7492 77.2443H13.3368V77.222Z"/>
   </g>
   <defs>
   <clipPath id="clip0_49_158">
   <rect width="100" height="100"/>
   </clipPath>
   </defs>
</svg>
