<svg id="card-icon-preguicoso" width="100" height="100" viewBox="0 0 100 100" fill="#4E6282" display="none" xmlns="http://www.w3.org/2000/svg">
   <g clip-path="url(#clip0_49_141)">
   <path d="M91.2719 0C86.4596 0 82.5442 3.74274 82.5442 8.34329C82.5442 9.41848 82.7602 10.4452 83.1494 11.3898C79.7687 15.1171 77.5703 20.1422 76.559 24.0037C75.272 23.7201 73.9342 23.5652 72.5586 23.5652C71.183 23.5652 69.8452 23.7201 68.5584 24.0037C67.5471 20.1422 65.3487 15.1173 61.968 11.3898C62.3572 10.4452 62.5732 9.41829 62.5732 8.34329C62.573 3.74274 58.6578 0 53.8455 0C49.0332 0 45.1178 3.74274 45.1178 8.34329C45.1178 12.9438 49.033 16.6866 53.8455 16.6866C55.1737 16.6866 56.4331 16.4003 57.5615 15.8907C60.3066 19.1682 62.0226 23.7635 62.591 26.4906C58.9459 28.8545 56.267 32.4769 55.2318 36.6981C50.7271 34.9015 45.8488 33.9648 40.8921 33.9648C23.5546 33.9648 8.71645 45.2731 5.34861 60.945C4.00426 62.971 2.96371 65.2469 2.2664 67.7075C0.8534 69.5737 0 71.9774 0 74.5988C0 77.0889 0.770859 79.3816 2.05903 81.2046C4.50379 90.9991 12.3243 97.7873 21.2727 97.7873C22.3529 97.7873 23.4183 97.6897 24.4626 97.5002C26.7886 98.6451 30.0874 100 34.8644 100H64.0659C73.9632 100 80.8822 97.9744 85.218 93.8079C90.4297 88.7995 90.3926 82.0113 90.368 77.5195C90.3664 77.2142 90.3646 76.9158 90.3646 76.6256L90.359 40.5819C90.359 34.7273 87.2495 29.5541 82.5269 26.4912C83.095 23.7641 84.811 19.1688 87.5563 15.8913C88.6843 16.4008 89.9437 16.6872 91.2723 16.6872C96.0846 16.6872 100 12.9444 100 8.34388C100 3.74333 96.0842 0 91.2719 0ZM53.8455 10.564C52.5647 10.564 51.5223 9.5677 51.5223 8.3431C51.5223 7.1185 52.5645 6.12222 53.8455 6.12222C55.1265 6.12222 56.1687 7.1185 56.1687 8.3431C56.1687 9.5677 55.1265 10.564 53.8455 10.564ZM6.40448 74.598C6.40448 72.141 7.9368 69.9856 9.68344 69.9856C11.4299 69.9856 12.9624 72.141 12.9624 74.598C12.9624 77.0553 11.4301 79.2107 9.68344 79.2107C7.9368 79.2105 6.40448 77.0551 6.40448 74.598ZM21.2727 91.6639C17.0472 91.6641 13.1598 89.2132 10.6325 85.2808C15.5281 84.7503 19.3669 80.1623 19.3669 74.598C19.3669 69.1565 15.6946 64.6505 10.9536 63.9585C13.4979 60.3001 17.2627 58.0279 21.2727 58.0279C28.7651 58.0279 34.8605 65.5725 34.8605 74.8459C34.8605 84.1193 28.7649 91.6639 21.2727 91.6639ZM51.4757 89.4891C48.4462 92.4008 42.8571 93.8768 34.8639 93.8768C34.0653 93.8768 33.3333 93.8243 32.6517 93.7348C33.7149 92.8885 34.7148 91.9172 35.6364 90.826C39.2658 86.5286 41.2648 80.8537 41.2648 74.8461C41.2648 68.8385 39.266 63.1636 35.6362 58.8661C31.8453 54.3777 26.7441 51.9056 21.2725 51.9056C19.3544 51.9056 17.4834 52.2107 15.6936 52.8015C21.0291 45.0748 30.4018 40.0866 40.8921 40.0866C45.7451 40.0866 50.501 41.17 54.7584 43.2282V76.6248C54.7584 76.9254 54.76 77.2342 54.7618 77.5508C54.7843 81.6449 54.8096 86.2855 51.4757 89.4891ZM83.9546 40.5815L83.9601 76.6252C83.9601 76.9256 83.9617 77.2344 83.9636 77.5508C83.986 81.6453 84.0114 86.2856 80.6774 89.4891C77.6479 92.4008 72.0589 93.8768 64.0659 93.8768H55.9434C55.9677 93.8536 55.992 93.8303 56.0163 93.8071C61.228 88.7987 61.1908 82.0105 61.1663 77.5185C61.1647 77.2133 61.1628 76.9148 61.1628 76.6246V40.5811C61.1628 34.5741 66.2749 29.6873 72.5586 29.6873C78.8425 29.6873 83.9546 34.5741 83.9546 40.5815ZM91.2719 10.564C89.9911 10.564 88.9487 9.5677 88.9487 8.3431C88.9487 7.1185 89.9909 6.12222 91.2719 6.12222C92.5527 6.12222 93.5951 7.1185 93.5951 8.3431C93.5951 9.5677 92.5527 10.564 91.2719 10.564Z"/>
   </g>
   <defs>
   <clipPath id="clip0_49_141">
   <rect width="100" height="100"/>
   </clipPath>
   </defs>
</svg>
