<svg id="card-icon-saudavel" width="100" height="100" viewBox="0 0 100 100" fill="#4E6282" display="none" xmlns="http://www.w3.org/2000/svg">
   <g clip-path="url(#clip0_49_157)">
   <path d="M74.1001 21.5407C67.1174 20.4634 60.5226 21.8997 54.7037 25.4905C54.3157 25.8495 53.9278 25.8495 53.5399 25.8495C53.1519 24.0542 52.764 22.2588 52.3761 20.8225C54.3157 21.1816 56.2554 21.5407 58.195 21.5407C60.1347 21.5407 61.6864 21.1816 63.626 20.8225C71.7725 17.9499 75.2639 8.61399 75.2639 7.53677C75.6518 6.10047 75.2639 4.30511 73.7122 3.58696C72.5484 2.86881 63.626 -2.15822 55.4795 1.07344C50.8244 2.50974 47.7209 6.10047 46.1692 9.33214C43.8416 6.45955 41.5141 3.94603 38.4106 1.79159L36.8589 0.714366C35.3072 -0.362856 32.5917 -0.0037815 31.4279 1.43251C30.2641 2.86881 30.652 5.38233 32.2038 6.45955L33.7555 7.53677C40.3503 11.8457 44.6175 18.6681 45.7813 25.8495C45.7813 25.8495 45.3934 25.8495 45.3934 25.4905C39.5744 21.8997 32.5917 20.8225 25.9969 21.5407C9.31594 24.0542 -2.32193 39.8534 0.393575 56.7299C1.16943 69.2975 10.8677 87.6103 22.5055 95.8689C26.3848 98.3825 30.2641 99.8188 34.1434 99.8188C34.9193 99.8188 35.6951 99.8188 36.471 99.8188C38.7986 99.4597 41.5141 98.3825 43.4537 96.9462C46.9451 94.4327 52.3761 94.4327 55.8674 96.9462C58.195 98.3825 60.5226 99.4597 62.8502 99.8188C67.5053 100.537 72.1605 99.1006 76.8156 95.8689C88.4535 87.9693 98.1517 69.2975 99.7034 56.7299C102.031 39.8534 90.3931 24.0542 74.1001 21.5407Z"/>
   </g>
   <defs>
   <clipPath id="clip0_49_157">
   <rect width="100" height="100"/>
   </clipPath>
   </defs>
</svg>
