<svg width="350" height="230" viewBox="0 0 350 230" fill="none" xmlns="http://www.w3.org/2000/svg">
<rect width="350" height="230" rx="5" fill="#84A3C4"/>
<rect x="12" y="10" width="90" height="90" rx="5" fill="#2E3A4E"/>
<rect x="112" y="10" width="230" height="30" rx="5" fill="#2E3A4E"/>
<rect x="112" y="48" width="150" height="25" rx="5" fill="#2E3A4E"/>
<rect x="112" y="80" width="70" height="20" rx="5" fill="#2E3A4E"/>
<rect x="12" y="175" width="45" height="45" rx="5" fill="#2E3A4E"/>
<g clip-path="url(#clip0_35_106)">
<path d="M295.8 213.24C295.8 215.583 297.182 217.758 299.452 218.991C301.722 220.222 304.556 220.334 306.943 219.286L337.743 205.767C340.352 204.622 342 202.282 342 199.721V160.76C342 158.417 340.618 156.241 338.348 155.01C336.078 153.778 333.244 153.666 330.857 154.714L300.057 168.232C297.448 169.378 295.8 171.718 295.8 174.279V213.24Z" fill="#4E6282"/>
<path d="M326.78 139.209C329.366 138.052 331 135.687 331 133.1C331 130.513 329.366 128.148 326.78 126.991L290.414 110.721C288.265 109.76 285.735 109.76 283.586 110.721L247.22 126.991C244.634 128.148 243 130.513 243 133.1C243 135.687 244.634 138.052 247.22 139.209L283.586 155.479C285.735 156.44 288.265 156.44 290.414 155.479L326.78 139.209Z" fill="#4E6282"/>
<path d="M243.674 154.714C241.174 153.666 238.204 153.778 235.826 155.01C233.448 156.241 232 158.417 232 160.76V199.721C232 202.282 233.726 204.622 236.459 205.767L268.726 219.286C271.226 220.334 274.196 220.222 276.574 218.991C278.952 217.758 280.4 215.583 280.4 213.24V174.279C280.4 171.718 278.674 169.378 275.941 168.232L243.674 154.714Z" fill="#4E6282"/>
</g>
<defs>
<clipPath id="clip0_35_106">
<rect width="110" height="110" fill="white" transform="translate(232 110)"/>
</clipPath>
</defs>
</svg>
