<svg width="230" height="350" viewBox="0 0 230 350" fill="none" xmlns="http://www.w3.org/2000/svg">
<rect x="230" y="350" width="230" height="350" rx="5" transform="rotate(180 230 350)" fill="#84A3C4"/>
<g clip-path="url(#clip0_35_84)">
<path d="M173.8 333.24C173.8 335.583 175.182 337.758 177.452 338.991C179.722 340.222 182.556 340.334 184.943 339.286L215.743 325.767C218.352 324.622 220 322.282 220 319.721V280.76C220 278.417 218.618 276.241 216.348 275.01C214.078 273.778 211.244 273.666 208.857 274.714L178.057 288.232C175.448 289.378 173.8 291.718 173.8 294.279V333.24Z" fill="#4E6282"/>
<path d="M204.78 259.209C207.366 258.052 209 255.687 209 253.1C209 250.513 207.366 248.148 204.78 246.991L168.414 230.721C166.265 229.76 163.735 229.76 161.586 230.721L125.22 246.991C122.634 248.148 121 250.513 121 253.1C121 255.687 122.634 258.052 125.22 259.209L161.586 275.479C163.735 276.44 166.265 276.44 168.414 275.479L204.78 259.209Z" fill="#4E6282"/>
<path d="M121.674 274.714C119.174 273.666 116.204 273.778 113.826 275.01C111.448 276.241 110 278.417 110 280.76V319.721C110 322.282 111.726 324.622 114.459 325.767L146.726 339.286C149.226 340.334 152.196 340.222 154.574 338.991C156.952 337.758 158.4 335.583 158.4 333.24V294.279C158.4 291.718 156.674 289.378 153.941 288.232L121.674 274.714Z" fill="#4E6282"/>
</g>
<rect x="10" y="295" width="45" height="45" rx="5" fill="#2E3A4E"/>
<rect x="10" y="192" width="70" height="20" rx="5" fill="#2E3A4E"/>
<rect x="10" y="157" width="150" height="25" rx="5" fill="#2E3A4E"/>
<rect x="10" y="117" width="210" height="30" rx="5" fill="#2E3A4E"/>
<rect x="70" y="10" width="90" height="90" rx="5" fill="#2E3A4E"/>
<defs>
<clipPath id="clip0_35_84">
<rect width="110" height="110" fill="white" transform="translate(110 230)"/>
</clipPath>
</defs>
</svg>
